<?xml version="1.0" standalone="no"?>
<!DOCTYPE svg PUBLIC "-//W3C//DTD SVG 20010904//EN"
 "http://www.w3.org/TR/2001/REC-SVG-20010904/DTD/svg10.dtd">
<svg version="1.0" xmlns="http://www.w3.org/2000/svg"
 width="474.000000pt" height="463.000000pt" viewBox="0 0 474.000000 463.000000"
 preserveAspectRatio="xMidYMid meet">

<g transform="translate(0.000000,463.000000) scale(0.100000,-0.100000)"
fill="#000000" stroke="none">
<path d="M2768 4333 c7 -3 16 -2 19 1 4 3 -2 6 -13 5 -11 0 -14 -3 -6 -6z"/>
<path d="M2008 4323 c7 -3 16 -2 19 1 4 3 -2 6 -13 5 -11 0 -14 -3 -6 -6z"/>
<path d="M3205 4190 c-3 -6 1 -7 9 -4 18 7 21 14 7 14 -6 0 -13 -4 -16 -10z"/>
<path d="M1490 4186 c0 -2 7 -7 16 -10 8 -3 12 -2 9 4 -6 10 -25 14 -25 6z"/>
<path d="M1450 4170 c-8 -5 -10 -10 -5 -10 6 0 17 5 25 10 8 5 11 10 5 10 -5
0 -17 -5 -25 -10z"/>
<path d="M3530 4006 c0 -2 7 -7 16 -10 8 -3 12 -2 9 4 -6 10 -25 14 -25 6z"/>
<path d="M3764 3812 c0 -10 8 -18 18 -18 16 0 16 2 1 18 -9 10 -17 18 -17 18
-1 0 -2 -8 -2 -18z"/>
<path d="M850 3709 c0 -5 5 -7 10 -4 6 3 10 8 10 11 0 2 -4 4 -10 4 -5 0 -10
-5 -10 -11z"/>
<path d="M756 3604 c-5 -14 -4 -15 9 -4 17 14 19 20 6 20 -5 0 -12 -7 -15 -16z"/>
<path d="M3939 3603 c-13 -16 -12 -17 4 -4 16 13 21 21 13 21 -2 0 -10 -8 -17
-17z"/>
<path d="M695 3524 c-9 -15 -12 -23 -6 -20 11 7 35 46 28 46 -3 0 -12 -12 -22
-26z"/>
<path d="M581 3334 c0 -11 3 -14 6 -6 3 7 2 16 -1 19 -3 4 -6 -2 -5 -13z"/>
<path d="M3426 3017 c3 -10 9 -15 12 -12 3 3 0 11 -7 18 -10 9 -11 8 -5 -6z"/>
<path d="M3411 2935 c16 -34 19 -67 19 -227 l0 -188 36 0 c26 0 43 -8 65 -29
24 -25 29 -37 29 -80 0 -47 2 -51 23 -51 52 0 57 -21 57 -221 0 -180 -1 -186
-22 -205 -13 -11 -31 -18 -40 -16 -15 3 -18 -5 -18 -52 0 -46 -4 -57 -25 -74
-14 -11 -43 -23 -65 -27 l-39 -7 -3 -157 c-3 -156 -3 -158 -33 -207 -41 -66
-115 -110 -198 -119 -34 -3 -435 -5 -892 -3 -773 3 -832 4 -862 21 -18 10 -33
13 -33 7 0 -5 4 -10 9 -10 8 0 459 -447 826 -820 l170 -173 125 12 c249 23
480 84 689 182 134 63 323 178 314 192 -3 5 -1 7 4 4 13 -8 115 71 108 84 -4
5 0 6 7 4 12 -5 171 141 258 237 33 37 33 38 15 58 -13 14 -15 24 -8 31 7 7
14 4 24 -8 13 -16 12 -17 -3 -4 -21 16 -25 -1 -4 -18 11 -9 22 -1 55 40 41 51
52 77 29 63 -9 -5 -9 -2 1 9 15 18 26 23 16 7 -3 -5 -4 -10 -2 -10 6 0 57 75
57 84 0 4 -5 4 -12 0 -7 -5 -8 -3 -4 5 5 7 10 10 13 7 3 -3 12 1 19 9 10 10
11 20 5 38 -7 17 -6 24 4 24 7 0 11 -7 8 -16 -10 -33 17 13 68 112 57 113 91
198 86 218 -2 8 -2 10 1 5 10 -20 86 246 79 275 -3 11 -1 17 4 13 5 -3 9 4 9
14 0 17 -84 104 -414 428 -6 7 -137 139 -292 295 -218 220 -277 275 -263 244z
m926 -997 c-3 -8 -6 -5 -6 6 -1 11 2 17 5 13 3 -3 4 -12 1 -19z m-77 -323 c0
-5 -5 -3 -10 5 -5 8 -10 20 -10 25 0 6 5 3 10 -5 5 -8 10 -19 10 -25z m-350
-588 c0 -2 -10 -12 -22 -23 l-23 -19 19 23 c18 21 26 27 26 19z m-137 -132 c4
-8 3 -16 -1 -19 -4 -3 -9 4 -9 15 -2 23 3 25 10 4z m-353 -275 c8 -5 11 -10 5
-10 -5 0 -17 5 -25 10 -8 5 -10 10 -5 10 6 0 17 -5 25 -10z"/>
<path d="M381 2834 c0 -11 3 -14 6 -6 3 7 2 16 -1 19 -3 4 -6 -2 -5 -13z"/>
<path d="M1760 2508 c-63 -32 -90 -77 -90 -147 0 -71 30 -120 95 -151 70 -34
149 -13 199 53 51 67 44 156 -17 215 -57 55 -118 64 -187 30z"/>
<path d="M2812 2509 c-107 -54 -123 -211 -28 -279 58 -42 112 -48 173 -19 83
40 116 134 79 223 -34 80 -142 117 -224 75z"/>
<path d="M4401 2294 c0 -11 3 -14 6 -6 3 7 2 16 -1 19 -3 4 -6 -2 -5 -13z"/>
<path d="M1814 1851 c-113 -69 -120 -222 -14 -296 l39 -27 463 -5 c544 -5 576
-3 624 39 47 42 64 78 64 138 0 64 -20 102 -72 140 l-41 30 -516 0 c-488 0
-518 -1 -547 -19z m164 -155 l3 -136 -41 0 -40 0 0 133 c0 74 3 137 6 140 4 4
21 5 38 3 l31 -3 3 -137z m140 1 l3 -137 -41 0 -40 0 0 133 c0 74 2 136 5 139
3 3 20 5 38 4 l32 -2 3 -137z m140 0 l3 -138 -38 3 -38 3 -3 124 c-1 69 -1
130 2 136 2 6 19 11 37 10 l34 0 3 -138z m118 133 l25 0 -3 -132 -3 -133 -37
-3 -38 -3 0 141 c0 126 2 141 16 136 9 -3 27 -6 40 -6z m294 -132 l0 -138 -35
0 -35 0 0 133 c0 74 2 136 4 138 2 2 18 4 35 4 l31 0 0 -137z m138 -1 l3 -137
-36 0 -35 0 0 133 c0 74 2 136 5 138 2 3 17 4 32 3 l28 -1 3 -136z m-275 6
c-1 -71 -2 -131 -3 -135 0 -5 -16 -8 -35 -8 l-35 0 0 135 0 135 38 0 37 0 -2
-127z m-693 -8 c0 -118 -1 -125 -18 -114 -52 33 -78 120 -51 172 15 28 50 67
61 67 4 0 8 -56 8 -125z m1105 50 c10 -23 14 -52 11 -70 -7 -34 -60 -104 -71
-93 -5 5 -10 198 -6 231 2 19 52 -31 66 -68z"/>
<path d="M595 1339 c-4 -6 -5 -12 -2 -15 2 -3 7 2 10 11 7 17 1 20 -8 4z"/>
<path d="M700 1161 c0 -6 4 -13 10 -16 6 -3 7 1 4 9 -7 18 -14 21 -14 7z"/>
<path d="M946 881 c-3 -5 2 -15 12 -22 15 -12 16 -12 5 2 -7 9 -10 19 -6 22 3
4 4 7 0 7 -3 0 -8 -4 -11 -9z"/>
<path d="M1500 500 c-9 -6 -10 -10 -3 -10 6 0 15 5 18 10 8 12 4 12 -15 0z"/>
</g>
</svg>
